<svg width="203" height="47" viewBox="0 0 203 47" fill="none" xmlns="http://www.w3.org/2000/svg">
<path d="M169.422 8.1723C169.773 8.4615 170.104 8.7662 170.432 9.07987C170.502 9.14174 170.572 9.20362 170.643 9.26737C172.566 11.0431 173.392 13.8446 173.629 16.363C173.639 16.4638 173.639 16.4638 173.649 16.5666C173.789 18.0624 173.807 19.5556 173.8 21.0572C173.798 21.4306 173.798 21.8039 173.798 22.1773C173.798 22.8065 173.796 23.4357 173.794 24.0649C173.792 24.6953 173.79 25.3258 173.79 25.9562C173.79 26.0331 173.79 26.11 173.79 26.1893C173.79 26.3444 173.789 26.4995 173.789 26.6546C173.787 29.6672 173.77 32.6796 173.729 35.6919C173.726 35.8943 173.724 36.0968 173.721 36.2992C173.717 36.6723 173.711 37.0454 173.705 37.4185C173.704 37.5267 173.703 37.6349 173.702 37.7464C173.684 38.692 173.654 39.5734 172.969 40.2773C172.13 40.9204 170.842 40.8602 169.833 40.8615C169.74 40.8618 169.648 40.8622 169.552 40.8625C169.357 40.863 169.163 40.8633 168.968 40.8633C168.672 40.8635 168.377 40.8653 168.082 40.8672C167.891 40.8675 167.701 40.8677 167.51 40.8678C167.423 40.8685 167.336 40.8693 167.247 40.87C166.354 40.8667 165.513 40.7693 164.776 40.2395C163.616 38.9245 164.042 36.0159 164.019 34.3908C164.015 34.1243 164.011 33.8578 164.007 33.5913C163.997 32.9617 163.987 32.3322 163.978 31.7027C163.958 30.3865 163.938 29.0704 163.918 27.7542C163.917 27.6874 163.916 27.6205 163.915 27.5517C163.888 25.8529 163.859 24.1542 163.816 22.4558C163.814 22.3799 163.812 22.304 163.811 22.2258C163.952 18.8265 163.952 18.8265 162.703 15.8775C161.947 15.1761 161.211 15.0653 160.2 15.0893C159.276 15.191 158.507 15.748 157.908 16.4412C157.326 17.366 157.068 18.2716 157.076 19.3528C157.076 19.4819 157.076 19.4819 157.075 19.6137C157.075 19.8985 157.076 20.1833 157.077 20.4681C157.077 20.6708 157.077 20.8735 157.077 21.0762C157.077 21.6186 157.079 22.161 157.081 22.7034C157.082 23.0399 157.082 23.3763 157.083 23.7128C157.087 27.0163 157.116 30.3186 157.179 33.6215C157.239 36.798 157.239 36.798 157.119 37.8383C157.112 37.9142 157.105 37.9902 157.098 38.0685C157.02 38.793 156.837 39.5221 156.292 40.0378C155.216 40.7396 153.982 40.7728 152.732 40.8068C152.613 40.8104 152.494 40.814 152.371 40.8177C152.135 40.8245 151.899 40.8308 151.663 40.8366C151.392 40.8434 151.121 40.852 150.85 40.8611C149.852 40.8876 148.862 40.8652 148.055 40.2143C147.504 39.6734 147.319 39.0406 147.29 38.2783C147.29 38.1425 147.289 38.0066 147.29 37.8708C147.289 37.7956 147.289 37.7204 147.289 37.6429C147.288 37.3914 147.288 37.1399 147.288 36.8883C147.287 36.7077 147.287 36.5271 147.286 36.3465C147.285 35.9575 147.284 35.5685 147.283 35.1795C147.282 34.5626 147.28 33.9457 147.278 33.3287C147.272 31.5743 147.266 29.82 147.263 28.0655C147.261 27.0966 147.258 26.1277 147.254 25.1588C147.252 24.647 147.25 24.1352 147.25 23.6234C147.25 23.1404 147.248 22.6574 147.246 22.1745C147.245 21.9989 147.245 21.8233 147.245 21.6477C147.248 19.7903 147.238 17.2763 145.889 15.8362C144.967 15.1553 144.082 15.0052 142.96 15.1303C142.097 15.359 141.56 15.7232 141.023 16.4286C140.69 17.0004 140.605 17.5926 140.559 18.2433C140.553 18.3197 140.547 18.3961 140.541 18.4749C140.522 18.7192 140.504 18.9636 140.486 19.208C140.474 19.3621 140.462 19.5162 140.45 19.6703C140.417 20.0989 140.387 20.5278 140.357 20.9567C140.342 21.1776 140.326 21.3986 140.31 21.6195C140.161 23.6627 140.102 25.6932 140.102 27.7413C140.101 28.1371 140.099 28.5329 140.098 28.9287C140.092 30.1813 140.089 31.4338 140.087 32.6864C140.085 33.517 140.083 34.3476 140.079 35.1782C140.077 35.6461 140.076 36.1141 140.076 36.5821C140.076 36.8721 140.075 37.1622 140.073 37.4522C140.072 37.6492 140.073 37.8463 140.073 38.0434C140.067 38.8606 140.013 39.5255 139.463 40.1702C139.1 40.5028 138.685 40.6299 138.213 40.7437C138.145 40.7612 138.077 40.7786 138.007 40.7965C137.588 40.864 137.175 40.861 136.752 40.8615C136.659 40.8618 136.566 40.8622 136.471 40.8625C136.274 40.863 136.078 40.8633 135.881 40.8633C135.585 40.8635 135.288 40.8653 134.991 40.8672C131.998 40.8763 131.998 40.8763 131.068 39.9685C130.377 39.0482 130.32 38.0763 130.321 36.9662C130.321 36.8492 130.321 36.7322 130.32 36.6116C130.32 36.2876 130.319 35.9636 130.319 35.6397C130.319 35.2899 130.318 34.9402 130.318 34.5904C130.316 33.8259 130.316 33.0615 130.315 32.297C130.315 31.8194 130.315 31.3417 130.314 30.864C130.313 29.5405 130.312 28.2169 130.311 26.8934C130.311 26.8087 130.311 26.7241 130.311 26.6368C130.311 26.552 130.311 26.4671 130.311 26.3797C130.311 26.2078 130.311 26.0358 130.311 25.8639C130.311 25.7786 130.311 25.6933 130.311 25.6054C130.311 24.2242 130.309 22.8429 130.307 21.4617C130.304 20.0423 130.303 18.6229 130.303 17.2035C130.303 16.4071 130.302 15.6107 130.3 14.8143C130.299 14.136 130.298 13.4577 130.299 12.7794C130.3 12.4336 130.299 12.0879 130.298 11.7422C130.297 11.3664 130.297 10.9907 130.298 10.6149C130.298 10.507 130.297 10.3991 130.296 10.288C130.302 9.38891 130.387 8.33727 130.979 7.61335C132.054 6.65087 133.65 6.56475 135.019 6.63749C135.489 6.67678 135.951 6.75087 136.414 6.83617C136.501 6.85197 136.588 6.86777 136.678 6.88405C137.38 7.02709 137.975 7.24404 138.504 7.73743C139.071 8.6195 138.98 9.77766 139.021 10.7942C139.088 10.7942 139.155 10.7942 139.223 10.7942C139.249 10.7208 139.275 10.6475 139.302 10.572C139.519 10.0766 139.887 9.69298 140.233 9.28155C140.297 9.20277 140.361 9.124 140.427 9.04284C141.534 7.72627 143.094 6.87302 144.778 6.55886C144.865 6.5404 144.952 6.52194 145.042 6.50292C147.602 6.16758 150.372 6.59031 152.531 8.05925C153.504 8.81329 154.301 9.66965 154.979 10.6933C155.08 10.8285 155.18 10.9632 155.282 11.0967C155.512 10.8241 155.741 10.5522 155.958 10.2695C156.868 9.09332 157.806 8.17956 159.12 7.46642C159.194 7.42535 159.268 7.38427 159.344 7.34195C162.494 5.67309 166.58 6.05559 169.422 8.1723Z" fill="#872D8E"/>
<path d="M66.8496 8.21616C67.107 8.38573 67.107 8.38573 67.4126 8.47496C67.4209 8.38969 67.4293 8.30441 67.4379 8.21656C67.5275 7.80634 67.646 7.48767 67.9176 7.16404C68.6928 6.72592 69.5336 6.74474 70.4 6.74374C70.5017 6.7434 70.6035 6.74307 70.7083 6.74272C70.9229 6.74221 71.1375 6.74197 71.3521 6.74199C71.6774 6.74177 72.0027 6.73994 72.3281 6.73803C72.5376 6.73773 72.7471 6.73753 72.9566 6.73743C73.0525 6.73671 73.1483 6.73599 73.2471 6.73524C74.1855 6.73838 75.122 6.7975 75.8966 7.36572C76.5882 8.18684 76.5319 9.15318 76.5289 10.1702C76.5293 10.3117 76.5296 10.4532 76.5301 10.5947C76.5312 10.9822 76.5309 11.3697 76.5305 11.7572C76.5303 12.1757 76.5312 12.5942 76.5319 13.0128C76.5332 13.8324 76.5334 14.6521 76.5332 15.4718C76.533 16.1387 76.5332 16.8056 76.5336 17.4726C76.5336 17.5676 76.5337 17.6626 76.5338 17.7605C76.5339 17.9536 76.534 18.1467 76.5341 18.3397C76.5352 20.1504 76.535 21.9611 76.5344 23.7717C76.5339 25.4246 76.535 27.0776 76.5369 28.7305C76.5389 30.4302 76.5397 32.13 76.5393 33.8297C76.5391 34.7829 76.5394 35.7361 76.5408 36.6894C76.542 37.5016 76.5422 38.3138 76.5409 39.126C76.5404 39.5396 76.5402 39.9532 76.5415 40.3668C76.5493 43.2168 76.5493 43.2168 76.374 44.4468C76.3631 44.5251 76.3522 44.6033 76.341 44.6839C76.2167 45.4113 75.8855 45.8681 75.2906 46.2901C75.0062 46.4321 74.7662 46.4069 74.448 46.4104C74.3823 46.4112 74.3166 46.412 74.2489 46.4129C74.0309 46.4154 73.8129 46.417 73.5949 46.4185C73.5203 46.419 73.4458 46.4196 73.3689 46.4201C72.9738 46.4228 72.5786 46.4248 72.1834 46.4262C71.8572 46.4276 71.531 46.4304 71.2048 46.4345C70.8103 46.4395 70.4159 46.442 70.0214 46.4427C69.8715 46.4434 69.7217 46.4449 69.5718 46.4473C68.5564 46.4628 67.9213 46.3679 67.1727 45.6598C66.7087 44.8757 66.7727 43.922 66.7648 43.0407C66.7629 42.9041 66.7609 42.7675 66.7589 42.6309C66.7537 42.2743 66.7497 41.9177 66.7459 41.5612C66.7419 41.1961 66.7367 40.831 66.7317 40.466C66.7219 39.7519 66.7134 39.0378 66.7056 38.3237C66.6434 38.3654 66.5811 38.407 66.517 38.4499C66.4352 38.5045 66.3535 38.5591 66.2692 38.6154C66.1477 38.6966 66.1477 38.6966 66.0238 38.7794C64.1609 40.0039 61.9483 40.335 59.7595 39.9944C59.2305 39.8851 58.7266 39.7237 58.2216 39.5338C58.1126 39.495 58.0037 39.4563 57.8914 39.4164C56.7251 38.9677 55.641 38.3201 54.6866 37.517C54.5407 37.4014 54.5407 37.4014 54.3919 37.2834C51.9783 35.2671 51.2477 31.7558 50.6466 28.8447C50.6296 28.763 50.6125 28.6812 50.595 28.597C50.4955 28.1101 50.4126 27.6225 50.3436 27.1304C50.3332 27.0576 50.3228 26.9848 50.3121 26.9098C49.5764 21.4803 50.3071 14.4767 53.7019 9.98126C55.0594 8.23567 56.7893 7.12577 58.9286 6.55899C58.9948 6.54089 59.061 6.52279 59.1292 6.50414C61.9555 5.79433 64.5049 6.71521 66.8496 8.21616ZM61.3262 15.9379C60.7957 16.4843 60.544 17.0255 60.3426 17.7523C60.3086 17.8717 60.2747 17.9912 60.2396 18.1143C59.7827 19.7885 59.5756 21.4645 59.5851 23.1977C59.5852 23.2821 59.5853 23.3666 59.5855 23.4536C59.5912 24.9919 59.7575 26.4425 60.1406 27.9371C60.1616 28.0214 60.1827 28.1057 60.2043 28.1925C60.522 29.4298 61 30.4928 62.1334 31.1672C62.8905 31.5153 63.879 31.4841 64.6667 31.2523C65.5832 30.8866 66.3105 30.3215 66.712 29.4069C66.959 28.74 67.1157 28.0909 67.2232 27.3888C67.2399 27.2835 67.2565 27.1781 67.2736 27.0695C67.7689 23.8487 67.8849 20.568 66.8066 17.4498C66.7745 17.3504 66.7423 17.2511 66.7092 17.1488C66.3983 16.2697 65.8642 15.6531 65.0308 15.2277C63.6847 14.6914 62.4014 14.9849 61.3262 15.9379Z" fill="#872D8E"/>
<path d="M13.4282 6.42649C13.5608 6.42681 13.5608 6.42681 13.6961 6.42714C17.1194 6.44061 20.861 6.93754 23.4777 9.38237C23.4777 9.44892 23.4777 9.51548 23.4777 9.58405C23.6777 9.68388 23.6777 9.68388 23.8817 9.78573C23.8817 9.85228 23.8817 9.91884 23.8817 9.98741C23.9484 9.98741 24.015 9.98741 24.0837 9.98741C25.7878 11.9084 26.4713 14.5101 26.6273 17.0163C26.6354 17.145 26.6435 17.2736 26.6518 17.4062C26.7838 19.7596 26.7277 22.1247 26.7177 24.4806C26.7132 25.554 26.7103 26.6274 26.708 27.7008C26.707 28.0723 26.7053 28.4438 26.7035 28.8153C26.7028 29.0437 26.7021 29.272 26.7015 29.5003C26.7008 29.6017 26.7001 29.7032 26.6994 29.8077C26.638 31.1157 26.638 31.1157 27.1137 32.2731C27.5071 32.4695 28.0154 32.4424 28.4529 32.4734C28.962 32.5205 29.2731 32.591 29.6387 32.979C29.7416 33.2873 29.7537 33.5002 29.756 33.8231C29.757 33.9338 29.7579 34.0446 29.7589 34.1587C29.7596 34.3383 29.7596 34.3383 29.7602 34.5216C29.7608 34.6448 29.7614 34.768 29.762 34.895C29.7629 35.1561 29.7636 35.4172 29.764 35.6783C29.765 36.0769 29.7681 36.4754 29.7713 36.874C29.7719 37.1276 29.7725 37.3813 29.7729 37.635C29.7747 37.8134 29.7747 37.8134 29.7766 37.9954C29.7742 38.9061 29.6076 39.5103 29.0327 40.2395C27.7609 41.4228 26.0414 41.3116 24.4111 41.2651C21.9853 41.1378 20.2536 39.8204 18.6297 38.1219C18.2 38.4305 17.7956 38.7474 17.4114 39.1114C16.3784 40.0348 15.2057 40.5734 13.8827 40.9454C13.7882 40.9763 13.6937 41.0073 13.5963 41.0391C11.0028 41.8182 7.66909 41.3841 5.28489 40.1445C4.50395 39.7041 3.80129 39.1673 3.17671 38.5252C3.10536 38.4598 3.03402 38.3945 2.96051 38.3271C1.5609 37.0203 0.723368 35.2116 0.247711 33.3824C0.228686 33.3125 0.209661 33.2426 0.19006 33.1706C0.00673265 32.402 0.00811646 31.6265 0.00827952 30.841C0.007841 30.6058 0.0041716 30.3708 0.000339574 30.1356C-0.0101486 28.7489 0.221729 27.4207 0.777961 26.1408C0.823122 26.0348 0.823122 26.0348 0.869196 25.9268C1.1611 25.2661 1.52548 24.6792 1.96471 24.1051C2.00478 24.0521 2.04485 23.9991 2.08613 23.9445C3.92695 21.5412 6.63339 20.2958 9.57759 19.8446C12.2209 19.5372 14.5667 20.044 16.9127 21.2815C16.9203 20.8747 16.9258 20.4679 16.9294 20.061C16.9309 19.9233 16.9329 19.7855 16.9356 19.6477C16.9623 18.2254 16.8521 16.9686 15.864 15.8846C15.084 15.2098 13.671 15.0541 12.6802 15.0921C11.5967 15.2246 10.7103 15.655 10.0289 16.5141C9.89015 16.7061 9.75317 16.8995 9.61822 17.0943C9.29177 17.557 8.93985 17.8978 8.42871 18.1555C8.1611 18.1696 8.1611 18.1696 7.87439 18.1358C7.76794 18.1238 7.66149 18.1118 7.55182 18.0994C7.44123 18.0847 7.33065 18.0699 7.21671 18.0546C7.10912 18.0406 7.00153 18.0266 6.89068 18.0122C6.55489 17.9662 6.21984 17.9166 5.88477 17.8656C5.76585 17.8476 5.64692 17.8297 5.52439 17.8112C4.60433 17.6712 3.6856 17.53 2.77271 17.3488C2.67142 17.3309 2.57013 17.3131 2.46577 17.2948C1.95089 17.1803 1.70801 17.0357 1.4029 16.5988C0.902387 15.7621 1.00664 14.7416 1.20011 13.8126C1.54915 12.4643 2.26496 11.3276 3.17671 10.2899C3.24038 10.2167 3.30404 10.1436 3.36964 10.0682C4.43 8.93196 5.80437 8.09292 7.21671 7.4664C7.30095 7.42753 7.38518 7.38867 7.47197 7.34862C9.35317 6.53296 11.4072 6.41752 13.4282 6.42649ZM10.4171 28.3368C9.83036 29.0434 9.60045 29.7907 9.65334 30.7038C9.78981 31.7908 10.241 32.5474 11.0547 33.2815C11.3453 33.4871 11.6363 33.6467 11.9637 33.7857C12.021 33.8116 12.0782 33.8374 12.1372 33.864C12.6789 34.0914 13.1656 34.1431 13.7501 34.1387C13.8386 34.1382 13.927 34.1377 14.0181 34.1371C15.1307 34.1075 16.0881 33.7431 16.9127 32.979C17.6342 32.2187 17.8584 31.3536 17.843 30.328C17.7684 29.3707 17.4264 28.532 16.7293 27.8614C14.8968 26.3829 12.0096 26.6219 10.4171 28.3368Z" fill="#872D8E"/>
<path d="M122.761 9.07994C123.592 9.84037 124.412 10.6219 124.983 11.6009C125.018 11.6604 125.053 11.7198 125.089 11.7811C126.699 14.5439 127.079 17.7398 127.468 20.8649C127.503 21.1426 127.54 21.4199 127.577 21.6972C128.21 26.6344 127.673 32.8252 124.557 36.889C124.498 36.9631 124.438 37.0372 124.377 37.1136C124.307 37.2064 124.236 37.2992 124.164 37.3948C124.101 37.4684 124.038 37.542 123.973 37.6178C123.906 37.6178 123.839 37.6178 123.771 37.6178C123.704 37.7509 123.637 37.884 123.569 38.0211C123.502 38.0211 123.435 38.0211 123.367 38.0211C123.333 38.1209 123.3 38.2208 123.266 38.3236C122.619 38.8835 121.907 39.3491 121.145 39.7354C121.056 39.7839 120.967 39.8324 120.876 39.8823C118.558 41.1125 115.757 41.4228 113.172 41.1661C113.081 41.1571 112.989 41.1481 112.895 41.1388C109.425 40.782 106.164 40.0288 103.778 37.2735C102.768 36.0038 102.102 34.5277 101.652 32.9791C101.624 32.8844 101.596 32.7897 101.568 32.6921C101.135 31.1894 100.764 29.6871 100.541 28.1388C100.529 28.0586 100.517 27.9784 100.505 27.8957C99.7256 22.2828 100.334 15.3915 103.775 10.7178C104.5 9.78109 105.3 9.01349 106.298 8.37406C106.376 8.32232 106.455 8.27059 106.536 8.21728C108.202 7.16639 110.108 6.6455 112.055 6.45809C112.207 6.44132 112.207 6.44132 112.362 6.42422C116.019 6.0743 119.917 6.56104 122.761 9.07994ZM111.84 15.9867C110.783 17.3956 110.51 19.1602 110.312 20.8657C110.304 20.9371 110.295 21.0085 110.287 21.082C109.969 23.8078 110.145 26.4572 110.678 29.1472C110.697 29.244 110.716 29.3409 110.735 29.4407C110.928 30.3511 111.288 31.3683 112.074 31.9262C112.972 32.4971 113.855 32.7383 114.918 32.5289C115.713 32.298 116.386 31.8401 116.793 31.11C117.613 29.2448 117.818 26.8377 117.836 24.8118C117.837 24.7175 117.838 24.6231 117.839 24.5259C118.027 20.0155 118.027 20.0155 116.353 15.9844C115.687 15.3575 115.01 15.0208 114.087 14.9854C113.17 15.0142 112.463 15.3064 111.84 15.9867Z" fill="#872D8E"/>
<path d="M198.03 9.01537C201.156 11.9958 201.97 17.1264 202.075 21.276C202.081 21.6349 202.083 21.9937 202.083 22.3527C202.084 22.6285 202.087 22.9042 202.091 23.1801C202.092 23.3578 202.092 23.5355 202.092 23.7132C202.094 23.7945 202.095 23.8759 202.097 23.9596C202.092 24.5829 201.908 24.9492 201.459 25.3972C200.886 25.7079 200.096 25.6485 199.458 25.6739C199.352 25.6781 199.247 25.6824 199.138 25.6868C197.817 25.7352 196.496 25.7312 195.175 25.7285C194.902 25.7282 194.629 25.7281 194.356 25.728C193.719 25.7277 193.082 25.7269 192.444 25.7259C191.717 25.7248 190.989 25.7242 190.262 25.7237C188.77 25.7227 187.277 25.7209 185.785 25.7186C185.816 25.8602 185.816 25.8602 185.847 26.0047C185.887 26.1925 185.887 26.1925 185.929 26.3841C185.955 26.5076 185.982 26.6311 186.009 26.7584C186.081 27.0974 186.149 27.4369 186.214 27.7772C186.234 27.8809 186.254 27.9847 186.274 28.0915C186.314 28.3002 186.354 28.509 186.393 28.7178C186.656 30.1501 186.656 30.1501 187.401 31.3657C187.401 31.4322 187.401 31.4988 187.401 31.5674C187.455 31.5923 187.509 31.6173 187.565 31.643C187.805 31.769 187.805 31.769 188.102 31.9707C188.99 32.5498 190.012 32.5712 191.037 32.4119C191.858 32.2286 192.6 31.774 193.057 31.0632C193.291 30.5271 193.456 29.9745 193.612 29.4119C193.729 29.0144 193.864 28.7352 194.168 28.4413C194.535 28.3191 194.853 28.3425 195.233 28.3665C195.346 28.3735 195.346 28.3735 195.462 28.3806C196.251 28.4359 197.026 28.5556 197.804 28.6908C198.039 28.7315 198.274 28.7707 198.509 28.8096C201.09 29.2436 201.09 29.2436 201.642 29.8531C201.864 30.2789 201.879 30.6869 201.875 31.1577C201.875 31.2332 201.875 31.3087 201.874 31.3864C201.86 32.11 201.735 32.786 201.541 33.4833C201.513 33.5846 201.485 33.6859 201.456 33.7902C200.622 36.5072 198.721 38.5047 196.251 39.8544C195.683 40.1501 195.08 40.3473 194.471 40.5422C194.404 40.5663 194.336 40.5904 194.267 40.6153C190.673 41.8858 186.378 41.4156 182.957 39.8489C180.164 38.5105 178.322 36.0362 177.301 33.1808C176.298 30.2328 176.027 27.0269 176.045 23.935C176.045 23.8163 176.045 23.6976 176.046 23.5752C176.066 18.6665 176.867 13.1581 180.488 9.52435C184.812 5.31103 193.424 5.15242 198.03 9.01537ZM187.36 15.3864C186.561 16.6185 186.189 17.7863 186.29 19.2648C186.323 19.3314 186.357 19.398 186.391 19.4665C188.724 19.4665 191.057 19.4665 193.461 19.4665C193.461 17.9274 193.301 16.3186 192.177 15.1525C191.358 14.388 190.629 14.1377 189.501 14.1716C188.638 14.287 187.897 14.6999 187.36 15.3864Z" fill="#872D8E"/>
<path d="M95.2024 6.72976C95.3854 6.7377 95.5684 6.74525 95.7514 6.75239C96.0117 6.76281 96.2718 6.77508 96.532 6.78783C96.649 6.79211 96.649 6.79211 96.7683 6.79647C97.3355 6.82721 97.8411 6.93312 98.2896 7.30818C99.1356 8.41247 98.9441 9.97664 98.9439 11.3094C98.9441 11.5333 98.946 11.7571 98.9479 11.9809C98.9569 14.1684 98.9569 14.1684 98.1172 15.0296C97.361 15.5868 96.3735 15.516 95.4782 15.3876C95.3804 15.3693 95.2826 15.351 95.1819 15.3321C94.1274 15.1377 93.0683 15.1433 92.0572 15.5338C91.4544 16.0005 91.2121 16.5563 91.0851 17.2922C91.0609 17.421 91.0366 17.5498 91.0117 17.6825C90.9134 18.3062 90.8841 18.9378 90.8452 19.5674C90.9075 19.5665 90.9698 19.5656 91.034 19.5647C91.6861 19.5557 92.3383 19.5496 92.9905 19.5452C93.2334 19.5432 93.4763 19.5404 93.7193 19.5369C94.0698 19.532 94.4202 19.5298 94.7708 19.528C94.932 19.5249 94.932 19.5249 95.0964 19.5217C95.9355 19.5214 96.6345 19.6786 97.3029 20.2039C97.8592 20.9277 97.931 21.6705 97.9357 22.552C97.9363 22.6357 97.9369 22.7194 97.9375 22.8057C97.9384 22.9827 97.9391 23.1598 97.9395 23.3368C97.9404 23.604 97.9436 23.871 97.9468 24.1381C97.9623 26.619 97.9623 26.619 97.2082 27.4329C96.653 27.7861 96.1351 27.9502 95.4775 27.9486C95.3744 27.9486 95.2713 27.9486 95.1651 27.9485C95.0545 27.948 94.9439 27.9475 94.83 27.947C94.7162 27.9468 94.6025 27.9467 94.4852 27.9465C94.122 27.946 93.7587 27.9447 93.3955 27.9434C93.1491 27.9429 92.9028 27.9425 92.6565 27.942C92.0527 27.9409 91.449 27.9392 90.8452 27.9371C90.8485 28.0147 90.8519 28.0924 90.8553 28.1723C90.9568 30.5572 90.9604 32.9314 90.902 35.3174C90.9 35.4006 90.8981 35.4838 90.896 35.5695C90.8085 39.1707 90.8085 39.1707 90.0372 40.1388C89.3188 40.7126 88.6201 40.7747 87.7363 40.7706C87.6423 40.7708 87.5482 40.771 87.4513 40.7712C87.2527 40.7714 87.054 40.771 86.8554 40.7701C86.5564 40.7691 86.2575 40.7701 85.9585 40.7714C82.9101 40.7737 82.9101 40.7737 81.7868 40.0695C81.2898 39.5733 81.1034 39.0302 81.1009 38.3363C81.1026 38.253 81.1044 38.1696 81.1062 38.0838C81.1065 37.9949 81.1068 37.9061 81.1071 37.8145C81.1086 37.5283 81.1131 37.2422 81.1176 36.956C81.1194 36.7585 81.1209 36.5611 81.1224 36.3636C81.1329 35.1957 81.1665 34.0301 81.2265 32.8637C81.2889 31.6311 81.285 30.4238 81.1303 29.1976C81.1201 29.1078 81.1099 29.0179 81.0994 28.9254C81.0397 28.5112 81.006 28.3004 80.7085 27.9931C80.6206 27.9413 80.5328 27.8896 80.4422 27.8363C80.3735 27.7939 80.3047 27.7515 80.2339 27.7079C80.1693 27.6712 80.1047 27.6346 80.0382 27.5968C79.4919 27.2613 79.1133 26.8477 78.9272 26.2228C78.8965 25.8641 78.8965 25.5065 78.8968 25.1467C78.8964 25.0421 78.896 24.9375 78.8955 24.8298C78.8949 24.6087 78.8949 24.3877 78.8953 24.1666C78.8956 23.8305 78.8933 23.4944 78.8907 23.1582C78.8905 22.9429 78.8904 22.7276 78.8905 22.5122C78.8896 22.4126 78.8887 22.313 78.8877 22.2104C78.8924 21.5029 78.9638 20.8161 79.4117 20.2425C79.4768 20.1903 79.5419 20.138 79.609 20.0842C79.6797 20.0272 79.7503 19.9703 79.8232 19.9116C80.0227 19.7793 80.1986 19.6968 80.4233 19.6178C80.7834 19.4486 80.8436 19.3345 80.9844 18.9743C81.1033 18.5763 81.1344 18.1717 81.1705 17.7593C81.1902 17.5626 81.2099 17.366 81.2297 17.1693C81.259 16.8636 81.2878 16.5579 81.316 16.2521C81.438 14.9501 81.625 13.7451 82.0582 12.5085C82.1039 12.3778 82.1039 12.3778 82.1505 12.2444C82.5145 11.269 83.0097 10.4859 83.6742 9.68502C83.7376 9.60027 83.801 9.51551 83.8663 9.42819C84.1097 9.14407 84.3696 8.94131 84.6716 8.72073C84.7734 8.64573 84.8752 8.57073 84.9801 8.49345C87.9429 6.38962 91.7348 6.5777 95.2024 6.72976Z" fill="#872D8E"/>
<path d="M36.7725 13.8061C36.9871 13.806 37.2016 13.8059 37.4162 13.8058C37.8627 13.8056 38.3091 13.8059 38.7556 13.8063C39.3223 13.8069 39.8889 13.8066 40.4556 13.806C40.8977 13.8056 41.3398 13.8057 41.7819 13.806C41.9906 13.806 42.1993 13.806 42.4081 13.8057C43.4242 13.8048 44.4389 13.8124 45.4542 13.8597C45.5324 13.863 45.6107 13.8662 45.6913 13.8696C46.2695 13.9007 46.7319 14.0003 47.2134 14.3237C47.2707 14.3601 47.3279 14.3965 47.387 14.434C48.0657 14.9256 48.2494 15.6362 48.3848 16.4214C48.4593 17.0134 48.4543 17.6039 48.4506 18.1997C48.4514 18.3241 48.4522 18.4484 48.453 18.5765C48.4484 20.7445 48.4484 20.7445 47.8194 21.4833C47.761 21.5561 47.7027 21.6289 47.6426 21.7039C46.7831 22.3952 45.6269 22.2901 44.5874 22.2901C44.554 25.6178 44.5207 28.9455 44.4864 32.3741C44.953 32.4074 45.4196 32.4407 45.9004 32.4749C46.7816 32.6621 47.5754 32.8843 48.1097 33.6535C48.5668 34.5001 48.5627 35.4482 48.5579 36.3888C48.5574 36.5047 48.5568 36.6206 48.5562 36.7399C48.5392 37.9216 48.4565 39.0257 47.6174 39.9371C46.6032 40.8678 45.1947 40.8928 43.8867 40.914C43.7393 40.9173 43.592 40.9206 43.4446 40.924C40.7672 40.9801 38.086 40.9776 35.409 40.9077C35.2106 40.9031 35.2106 40.9031 35.0081 40.8983C31.986 40.8042 31.986 40.8042 31.1745 40.0766C30.4111 39.1998 30.5153 37.9096 30.522 36.8138C30.5231 36.603 30.522 36.3922 30.5207 36.1814C30.5181 33.8585 30.5181 33.8585 31.2554 33.08C32.1108 32.3584 33.5146 32.3741 34.5884 32.3741C34.5884 29.0464 34.5884 25.7186 34.5884 22.2901C34.1217 22.2901 33.6551 22.2901 33.1744 22.2901C31.7041 22.1318 31.7041 22.1318 31.1544 21.5842C30.6374 20.8112 30.5332 20.0684 30.5278 19.153C30.5273 19.0757 30.5267 18.9983 30.5261 18.9187C30.5252 18.7556 30.5245 18.5925 30.5241 18.4295C30.5231 18.183 30.52 17.9365 30.5168 17.69C30.5094 16.6051 30.5367 15.6085 31.2554 14.727C31.923 14.0901 32.5338 13.8776 33.4292 13.8518C33.5122 13.8485 33.5952 13.8452 33.6807 13.8417C34.7109 13.8044 35.7418 13.8049 36.7725 13.8061Z" fill="#872D8E"/>
<path d="M43.3729 1.44052C43.44 1.49902 43.5072 1.55751 43.5764 1.61778C43.6374 1.66796 43.6983 1.71813 43.7611 1.76983C44.7754 2.67767 45.4449 4.16841 45.5333 5.5084C45.6022 7.29699 45.0525 8.67532 43.911 10.0632C42.7652 11.286 41.2366 11.9888 39.5763 12.1379C37.7662 12.1931 36.2302 11.6191 34.8537 10.4449C33.5621 9.20489 32.9112 7.63896 32.8389 5.86568C32.8829 4.41608 33.4131 3.04531 34.4119 1.9782C35.4865 1.00656 36.7032 0.383168 38.1224 0.105174C38.2391 0.0822962 38.3557 0.059418 38.4759 0.0358466C40.3052 -0.127221 41.9418 0.253276 43.3729 1.44052Z" fill="#872D8E"/>
</svg>
